<svg width="85" height="85" viewBox="0 0 80 80" fill="none" xmlns="http://www.w3.org/2000/svg">
<rect x="17" y="14" width="48.1091" height="49" rx="24.0545" fill="#0075FF"/>
<circle opacity="0.5" cx="41.9454" cy="38.9454" r="15.3778" stroke="#94C5FF" stroke-width="1.31707"/>
<path d="M38.3818 42.509L46.4 34.4909M46.4 34.4909V42.509M46.4 34.4909H38.3818" stroke="white" stroke-width="1.57895" stroke-linecap="square"/>
<path opacity="0.0375" d="M57.2992 32.113C87.5811 43.2784 41.8193 76.8223 37.2441 54.7093C34.9676 43.7068 13.6383 50.5132 14.2798 39.161C14.9141 27.812 24.5271 28.7897 34.0607 23.228C45.9359 16.2388 49.2815 29.1569 57.2992 32.113Z" stroke="#7945F3" stroke-width="1.3728" stroke-miterlimit="10"/>
<path opacity="0.075" d="M57.5338 31.5447C85.9429 43.2594 43.3232 76.2358 37.2537 55.2053C34.2618 44.8395 13.2767 49.2765 14.5596 38.3026C15.8282 27.3359 25.1734 27.4353 34.5019 22.8434C46.1371 17.1164 49.795 28.3533 57.5338 31.5447Z" stroke="#7741F2" stroke-width="1.3728" stroke-miterlimit="10"/>
<path opacity="0.1125" d="M57.7683 30.9756C84.2983 43.183 44.8518 75.6714 37.2632 55.6997C33.5703 45.9809 12.915 48.0372 14.8386 37.4425C16.7423 26.859 25.8045 26.0617 34.943 22.457C46.3199 17.9708 50.3013 27.5402 57.7683 30.9756Z" stroke="#753CF1" stroke-width="1.3728" stroke-miterlimit="10"/>
<path opacity="0.15" d="M58.0028 30.4072C82.6514 43.0447 46.4137 75.1269 37.2728 56.1949C32.8963 47.1303 12.5534 46.7996 15.1184 36.5833C17.6564 26.3828 26.4309 24.6882 35.3842 22.0723C46.4972 18.8253 50.8005 26.7143 58.0028 30.4072Z" stroke="#7238F0" stroke-width="1.3728" stroke-miterlimit="10"/>
<path opacity="0.1875" d="M58.2372 29.8389C81.0092 42.8372 48.0137 74.5927 37.2823 56.6909C32.2421 48.2828 12.1917 45.5612 15.3982 35.7248C18.5705 25.9067 27.0532 23.3131 35.8253 21.6876C46.668 19.6774 51.2949 25.8757 58.2372 29.8389Z" stroke="#7033EF" stroke-width="1.3728" stroke-miterlimit="10"/>
<path opacity="0.225" d="M58.4717 29.2698C79.379 42.5575 49.6551 74.0546 37.2911 57.1853C31.6086 49.4322 11.8293 44.3236 15.6764 34.8656C19.4846 25.4298 27.6693 21.934 36.2665 21.3013C46.8334 20.5239 51.787 25.0212 58.4717 29.2698Z" stroke="#6E2EEE" stroke-width="1.3728" stroke-miterlimit="10"/>
<path opacity="0.2625" d="M58.707 28.7015C77.7702 42.203 51.3395 73.503 37.3014 57.6805C30.9966 50.5745 11.4677 43.0853 15.957 34.0064C20.3987 24.9537 28.2829 20.5494 36.7077 20.9166C46.994 21.3641 52.279 24.1485 58.707 28.7015Z" stroke="#6C2AED" stroke-width="1.3728" stroke-miterlimit="10"/>
<path opacity="0.3" d="M58.9415 28.1323C76.1899 41.7729 53.0587 72.9243 37.3109 58.1748C30.4004 51.7031 11.1059 41.8468 16.2367 33.1463C21.3127 24.4759 28.8941 19.1567 37.1487 20.5302C47.1529 22.1947 52.7757 23.2566 58.9415 28.1323Z" stroke="#6A25EC" stroke-width="1.3728" stroke-miterlimit="10"/>
<path opacity="0.3375" d="M59.176 27.564C74.6496 41.2721 54.8067 72.3099 37.3205 58.6709C29.8162 52.8175 10.7443 40.6092 16.5158 32.2878C22.2269 24.0006 29.5062 17.7586 37.59 20.1455C47.3127 23.0166 53.2829 22.3425 59.176 27.564Z" stroke="#6820EB" stroke-width="1.3728" stroke-miterlimit="10"/>
<path opacity="0.375" d="M59.4104 26.9949C73.1576 40.7055 56.572 71.6534 37.33 59.1653C29.2391 53.9145 10.3826 39.3709 16.7956 31.4286C23.1409 23.5237 30.1222 16.3525 38.0311 19.7601C47.4772 23.8306 53.8059 21.4062 59.4104 26.9949Z" stroke="#1CA4E9" stroke-width="1.3728" stroke-miterlimit="10"/>
<path opacity="0.4125" d="M59.6449 26.4266C71.726 40.0839 58.3437 70.9555 37.3395 59.6605C28.6628 54.9947 10.0209 38.1325 17.0753 30.5694C24.055 23.0476 30.7437 14.9416 38.4722 19.3746C47.6473 24.6382 54.3551 20.4469 59.6449 26.4266Z" stroke="#1CA4E9" stroke-width="1.3728" stroke-miterlimit="10"/>
<path opacity="0.45" d="M59.8794 25.8574C70.3612 39.4209 60.1139 70.2178 37.3491 60.1557C28.0842 56.0605 9.6585 36.8949 17.3543 29.7101C24.9683 22.5707 31.3709 13.5275 38.9134 18.989C47.8253 25.4433 54.9386 19.4643 59.8794 25.8574Z" stroke="#1CA4E9" stroke-width="1.3728" stroke-miterlimit="10"/>
<path opacity="0.4875" d="M60.114 25.2891C69.0713 38.7374 61.873 69.4468 37.3587 60.6509C27.5008 57.1138 9.29772 35.6565 17.6342 28.8509C25.8825 22.0946 32.0053 12.1135 39.3546 18.6036C48.0106 26.2485 55.5658 18.4613 60.114 25.2891Z" stroke="#1CA4E9" stroke-width="1.3728" stroke-miterlimit="10"/>
<path opacity="0.525" d="M60.3484 24.72C67.8607 38.053 63.6177 68.6472 37.3682 61.1453C26.9094 58.1567 8.93523 34.4181 17.914 27.9909C26.7974 21.6169 32.6444 10.7003 39.7957 18.2173C48.2014 27.0545 56.2485 17.4439 60.3484 24.72Z" stroke="#3DDCEB" stroke-width="1.3728" stroke-miterlimit="10"/>
<path opacity="0.5625" d="M60.5829 24.1517C66.7304 37.3956 65.3457 67.8277 37.3777 61.6413C26.3101 59.1931 8.57355 33.1805 18.193 27.1324C27.7106 21.1407 33.2858 9.28936 40.2368 17.8333C48.3969 27.8637 56.9941 16.4201 60.5829 24.1517Z" stroke="#3DDCEB" stroke-width="1.3728" stroke-miterlimit="10"/>
<path opacity="0.6" d="M60.8174 23.5834C65.6764 36.7908 67.0555 66.9939 37.3873 62.1365C25.7028 60.2233 8.21189 31.9421 18.4728 26.274C28.6247 20.6654 33.9312 7.88168 40.678 17.4486C48.5956 28.6752 57.8065 15.4003 60.8174 23.5834Z" stroke="#3DDCEB" stroke-width="1.3728" stroke-miterlimit="10"/>
<path d="M44.4119 51.8979C25.4508 76.1624 1.63991 32.8408 26.7258 33.3412C39.2875 33.5916 35.011 15.1405 47.3 16.6409C59.5891 18.1413 55.1735 25.7883 59.6684 34.374C65.2818 45.0958 49.3117 45.6274 44.4119 51.8979Z" stroke="#1CA4E9" stroke-width="1.3728" stroke-miterlimit="10"/>
<path opacity="0.9375" d="M44.9503 52.1574C25.7888 74.8953 1.89935 34.1038 26.2048 33.2851C38.2803 32.8784 36.3966 15.0099 48.1312 16.9731C59.8638 18.9302 56.4791 26.466 59.9633 34.7746C64.3699 45.1313 50.0087 46.1549 44.9503 52.1574Z" stroke="#1CA4E9" stroke-width="1.3728" stroke-miterlimit="10"/>
<path opacity="0.875" d="M45.488 52.4171C26.1756 73.6257 2.11571 35.381 25.6838 33.2295C37.2543 32.1735 37.7822 14.8804 48.9625 17.3059C60.1379 19.7196 57.7381 27.1495 60.2589 35.1757C63.3988 45.1738 50.714 46.6777 45.488 52.4171Z" stroke="#1CA4E9" stroke-width="1.3728" stroke-miterlimit="10"/>
<path opacity="0.8125" d="M46.0264 52.6763C26.6173 72.3565 2.29449 36.6787 25.1628 33.1735C36.2116 31.48 39.1686 14.7499 49.7938 17.6383C60.4127 20.5086 59.0215 27.8268 60.5539 35.5758C62.4591 45.2088 51.4305 47.197 46.0264 52.6763Z" stroke="#1CA4E9" stroke-width="1.3728" stroke-miterlimit="10"/>
<path opacity="0.75" d="M46.5648 52.9359C27.1202 71.0911 2.44477 38.0053 24.6418 33.1179C35.1578 30.8027 40.5542 14.6199 50.625 17.971C60.6875 21.298 60.307 28.5015 60.8488 35.9769C61.5215 45.2408 52.1588 47.7127 46.5648 52.9359Z" stroke="#1CA4E9" stroke-width="1.3728" stroke-miterlimit="10"/>
<path opacity="0.6875" d="M47.1025 53.1956C27.6906 69.8328 2.58106 39.3647 24.1208 33.0623C34.0998 30.1424 41.9405 14.4903 51.4569 18.3037C60.9622 22.0874 61.5966 29.1744 61.1451 36.3779C60.588 45.2697 52.901 48.2258 47.1025 53.1956Z" stroke="#1CA4E9" stroke-width="1.3728" stroke-miterlimit="10"/>
<path opacity="0.625" d="M47.6409 53.4553C28.3347 68.5868 2.72229 40.7593 23.6005 33.0067C33.0446 29.4998 43.3261 14.3603 52.2882 18.6361C61.237 22.8768 62.889 29.8444 61.4401 36.7786C59.6608 45.296 53.6599 48.7377 47.6409 53.4553Z" stroke="#1CA4E9" stroke-width="1.3728" stroke-miterlimit="10"/>
<path opacity="0.5625" d="M48.1785 53.7149C29.0553 67.3588 2.88362 42.1866 23.0795 32.9507C31.9991 28.8715 44.7117 14.2303 53.12 18.9688C61.5124 23.6662 64.189 30.5138 61.7364 37.1792C58.7404 45.321 54.4361 49.2504 48.1785 53.7149Z" stroke="#1CA4E9" stroke-width="1.3728" stroke-miterlimit="10"/>
<path opacity="0.5" d="M48.717 53.9744C29.856 66.1546 3.07911 43.6405 22.5585 32.895C30.9682 28.2558 46.0981 14.1001 53.9513 19.3015C61.7865 24.4551 65.494 31.1822 62.0313 37.5801C57.8285 45.3453 55.2326 49.7665 48.717 53.9744Z" stroke="#1CA4E9" stroke-width="1.3728" stroke-miterlimit="10"/>
<path opacity="0.4375" d="M49.2553 54.2341C30.7352 64.9826 3.31698 45.1142 22.0375 32.8394C29.9547 27.6477 47.4837 13.9701 54.7825 19.6338C62.0612 25.2445 66.8065 31.8526 62.3269 37.9808C56.9242 45.3712 56.052 50.2897 49.2553 54.2341Z" stroke="#1CA4E9" stroke-width="1.3728" stroke-miterlimit="10"/>
<path opacity="0.375" d="M49.7931 54.4937C31.6882 63.8491 3.59948 46.5998 21.5166 32.7834C28.9594 27.044 48.8694 13.8401 55.6138 19.9666C62.3361 26.0339 68.1248 32.5246 62.6219 38.3818C56.0284 45.4001 56.8944 50.8243 49.7931 54.4937Z" stroke="#1CA4E9" stroke-width="1.3728" stroke-miterlimit="10"/>
<path opacity="0.3125" d="M50.3314 54.7533C32.7058 62.7628 3.92566 48.0901 20.9955 32.7278C27.9813 26.4406 50.2549 13.7101 56.4457 20.2993C62.6114 26.8233 69.4484 33.2006 62.9175 38.7824C55.1373 45.4329 57.7618 51.3768 50.3314 54.7533Z" stroke="#1CA4E9" stroke-width="1.3728" stroke-miterlimit="10"/>
<path opacity="0.25" d="M50.8692 55.013C33.7736 61.7305 4.29021 49.58 20.4746 32.6722C27.018 25.8365 51.6406 13.5805 57.277 20.6321C62.8856 27.6127 70.7743 33.8801 63.2132 39.1835C54.2491 45.4702 58.6529 51.9543 50.8692 55.013Z" stroke="#1CA4E9" stroke-width="1.3728" stroke-miterlimit="10"/>
<path opacity="0.1875" d="M51.4076 55.2726C34.8692 60.7589 4.68809 51.0647 19.9536 32.6161C26.0664 25.2288 53.0269 13.45 58.1082 20.9644C63.1603 28.4021 72.1008 34.5636 63.5081 39.5841C53.3622 45.5122 59.5648 52.5664 51.4076 55.2726Z" stroke="#1CA4E9" stroke-width="1.3728" stroke-miterlimit="10"/>
<path opacity="0.125" d="M51.9459 55.5322C35.9633 59.8522 5.11233 52.5423 19.4332 32.5605C25.1259 24.6175 54.4132 13.3204 58.9401 21.2971C63.4357 29.1915 73.4272 35.2509 63.8044 39.9851C52.4732 45.5586 60.4913 53.2222 51.9459 55.5322Z" stroke="#1CA4E9" stroke-width="1.3728" stroke-miterlimit="10"/>
<path opacity="0.0625" d="M52.4836 55.7918C37.0185 59.012 5.55679 54.0112 18.9115 32.5049C24.1917 24.002 55.7981 13.1904 59.7706 21.6298C63.7091 29.9809 74.7502 35.9414 64.0986 40.3857C51.5828 45.6081 61.4192 53.9311 52.4836 55.7918Z" stroke="#1CA4E9" stroke-width="1.3728" stroke-miterlimit="10"/>
<path opacity="0.025" d="M29.4053 49.0399C-1.80144 45.3343 35.3024 5.36572 44.0871 24.3889C48.4561 33.8506 67.5038 23.2019 69.1525 33.5974C70.8069 43.9877 61.4169 45.1321 53.4053 52.1683C43.4393 60.9894 37.6603 50.0199 29.4053 49.0399Z" stroke="#2AEFFF" stroke-width="1.3728" stroke-miterlimit="10"/>
<path opacity="0.05" d="M29.2945 49.6034C-0.246359 45.0025 33.9776 6.20792 43.9795 23.9433C48.9037 32.6755 68.0964 24.2448 69.0562 34.4324C70.0275 44.6105 61.0701 46.4911 53.06 52.6091C43.0732 60.2376 37.3238 50.8538 29.2945 49.6034Z" stroke="#2AEFFF" stroke-width="1.3728" stroke-miterlimit="10"/>
<path opacity="0.075" d="M29.1832 50.1666C1.32587 44.7182 32.6215 7.03207 43.8713 23.4978C49.3347 31.4943 68.6886 25.2874 68.9595 35.2679C69.2475 45.234 60.7399 47.8648 52.7143 53.0506C42.7285 59.5035 36.9962 51.6946 29.1832 50.1666Z" stroke="#2AEFFF" stroke-width="1.3728" stroke-miterlimit="10"/>
<path opacity="0.1" d="M29.0726 50.7301C2.91437 44.4894 31.2298 7.84724 43.7643 23.0526C49.7482 30.3114 69.2825 26.3303 68.8639 36.1034C68.4688 45.8573 60.4151 49.2384 52.3697 53.4919C42.3891 58.7687 36.6776 52.5441 29.0726 50.7301Z" stroke="#2AEFFF" stroke-width="1.3728" stroke-miterlimit="10"/>
<path opacity="0.125" d="M28.9612 51.2932C4.51305 44.3214 29.7973 8.66302 43.656 22.607C50.1396 29.1306 69.8746 27.3727 68.7676 36.9389C67.6893 46.4812 60.0936 50.6131 52.0243 53.9334C42.0552 58.0356 36.3661 53.4051 28.9612 51.2932Z" stroke="#2AEFFF" stroke-width="1.3728" stroke-miterlimit="10"/>
<path opacity="0.15" d="M28.8505 51.8568C6.11809 44.2211 28.3259 9.4923 43.5484 22.1615C50.5124 27.9571 70.4678 28.4152 68.6715 37.7739C66.9099 47.1041 59.7775 51.9893 51.6791 54.3743C41.7271 57.3056 36.0609 54.2786 28.8505 51.8568Z" stroke="#2AEFFF" stroke-width="1.3728" stroke-miterlimit="10"/>
<path opacity="0.175" d="M28.7393 52.4204C7.72159 44.1925 26.8197 10.3471 43.4408 21.7159C50.8686 26.7967 71.0606 29.4577 68.5753 38.6095C66.1306 47.7275 59.4656 53.3703 51.3339 54.8157C41.4048 56.5809 35.7594 55.1682 28.7393 52.4204Z" stroke="#2AEFFF" stroke-width="1.3728" stroke-miterlimit="10"/>
<path opacity="0.2" d="M28.6285 52.9835C9.31566 44.2388 25.2869 11.2362 43.3332 21.2709C51.2127 25.6523 71.6533 30.5007 68.4796 39.445C65.3517 48.3509 59.1573 54.7575 50.9891 55.2572C41.0855 55.8634 35.4588 56.0766 28.6285 52.9835Z" stroke="#2AEFFF" stroke-width="1.3728" stroke-miterlimit="10"/>
<path opacity="0.225" d="M28.5172 53.547C10.8911 44.3604 23.7375 12.1658 43.225 20.8252C51.5502 24.5245 72.246 31.5431 68.3829 40.2805C64.5718 48.9748 58.8484 56.1509 50.6439 55.6985C40.7668 55.1542 35.1541 57.0061 28.5172 53.547Z" stroke="#2AEFFF" stroke-width="1.3728" stroke-miterlimit="10"/>
<path opacity="0.25" d="M28.4065 54.1102C12.4373 44.5544 22.1839 13.1371 43.1174 20.3797C51.886 23.4135 72.8387 32.5856 68.2867 41.1156C63.7924 49.5978 58.538 57.5506 50.2987 56.1395C40.4465 54.4529 34.8401 57.9603 28.4065 54.1102Z" stroke="#2AEFFF" stroke-width="1.3728" stroke-miterlimit="10"/>
<path opacity="0.275" d="M28.2953 54.6738C13.9421 44.8149 20.6346 14.1473 43.0098 19.9346C52.2251 22.3175 73.432 33.6281 68.1911 41.9511C63.0136 50.2211 58.2251 58.9565 49.954 56.5809C40.1221 53.7582 34.5095 58.9419 28.2953 54.6738Z" stroke="#2AEFFF" stroke-width="1.3728" stroke-miterlimit="10"/>
<path opacity="0.3" d="M28.1845 55.2374C15.3937 45.1315 19.0966 15.1913 42.9021 19.489C52.5697 21.2344 74.0247 34.671 68.0949 42.7866C62.2337 50.845 57.9068 60.366 49.6082 57.0223C39.7919 53.0672 34.1528 59.9526 28.1845 55.2374Z" stroke="#2AEFFF" stroke-width="1.3728" stroke-miterlimit="10"/>
<path opacity="0.325" d="M28.0732 55.8005C16.7808 45.4887 17.5747 16.2629 42.7945 19.0435C52.9217 20.1603 74.6173 35.7135 67.9986 43.6222C61.4543 51.4684 57.5834 61.7776 49.2635 57.4638C39.4555 52.3788 33.7591 60.9925 28.0732 55.8005Z" stroke="#2AEFFF" stroke-width="1.3728" stroke-miterlimit="10"/>
<path opacity="0.35" d="M27.9624 56.3641C18.0921 45.8657 16.0722 17.3542 42.6869 18.5979C53.2825 19.0929 75.2106 36.756 67.9025 44.4577C60.6749 52.0918 57.2553 63.1898 48.9182 57.9052C39.1139 51.691 33.3177 62.0599 27.9624 56.3641Z" stroke="#2AEFFF" stroke-width="1.3728" stroke-miterlimit="10"/>
<path opacity="0.375" d="M27.8512 56.9271C19.3202 46.2389 14.5883 18.4601 42.5788 18.1528C53.6517 18.0311 75.8029 37.7989 67.8058 45.2932C59.8951 52.7152 56.9226 64.6008 48.5725 58.3465C38.7672 51.0015 32.8176 63.1491 27.8512 56.9271Z" stroke="#2AEFFF" stroke-width="1.3728" stroke-miterlimit="10"/>
<path opacity="0.4" d="M27.7405 57.4907C20.4604 46.58 13.1237 19.5748 42.4711 17.7072C54.0297 16.9715 76.3956 38.8413 67.7101 46.1287C59.1162 53.3386 56.5878 66.0108 48.2278 58.788C38.4162 50.311 32.2509 64.2504 27.7405 57.4907Z" stroke="#2AEFFF" stroke-width="1.3728" stroke-miterlimit="10"/>
<defs>
<filter id="filter0_f_3_638" x="0.579224" y="0.313599" width="82.7728" height="76.0327" filterUnits="userSpaceOnUse" color-interpolation-filters="sRGB">
<feFlood flood-opacity="0" result="BackgroundImageFix"/>
<feBlend mode="normal" in="SourceGraphic" in2="BackgroundImageFix" result="shape"/>
<feGaussianBlur stdDeviation="6.5" result="effect1_foregroundBlur_3_638"/>
</filter>
</defs>
</svg>
